# xmcd
#
# Track frame offsets:
#	150
#	15800
#	30574
#	44206
#	60432
#	75154
#	88625
#	101413
#	116075
#	126500
#	145225
#	158283
#
# Disc length: 2340 seconds
#
# Revision: 1
# Processed by: cddbd v1.5.2PL0 Copyright (c) Steve Scherf et al.
# Submitted via: audiograbber 1.83.01
#
DISCID=8909220c
DTITLE=Bill Dankert and Real Austinaires - In Spite
DYEAR=1900
DGENRE=Americana
TTITLE0=All Your Heart
TTITLE1=Must Have Been Stoned
TTITLE2=Drop Down
TTITLE3=Not So Easy
TTITLE4=The Vow
TTITLE5=Fountain
TTITLE6=Happiness
TTITLE7=I Can Say
TTITLE8=When We Fight
TTITLE9=Miles Away
TTITLE10=The Beer Buzz
TTITLE11=Doesn't Bother Me
EXTD=
EXTT0=
EXTT1=
EXTT2=
EXTT3=
EXTT4=
EXTT5=
EXTT6=
EXTT7=
EXTT8=
EXTT9=
EXTT10=
EXTT11=
PLAYORDER=
